# This file uses centimeters as units for non-parametric coordinates.

mtllib LiftObject.mtl
g default
v -5.828375 0.253072 4.480343
v 6.005049 0.253072 4.480343
v -5.828375 11.051056 4.480343
v 6.005049 11.051056 4.480343
v -5.828375 11.051056 -4.480343
v 6.005049 11.051056 -4.480343
v -5.828375 0.253072 -4.480343
v 6.005049 0.253072 -4.480343
v -5.828375 0.361425 -3.680727
v -5.828375 0.361425 3.680727
v -5.828375 9.350136 3.680727
v -5.828375 9.350136 -3.680727
v 3.899975 0.361425 -3.680727
v 3.899975 0.361425 3.680727
v 3.899975 9.350136 3.680727
v 3.899975 9.350136 -3.680727
v -5.828375 10.214766 1.279877
v -5.828375 10.214766 -1.279877
v -5.828375 9.746778 -1.051455
v -5.828375 9.746778 1.051455
vt 0.375000 0.000000
vt 0.625000 0.000000
vt 0.375000 0.250000
vt 0.625000 0.250000
vt 0.375000 0.500000
vt 0.625000 0.500000
vt 0.375000 0.750000
vt 0.625000 0.750000
vt 0.375000 1.000000
vt 0.625000 1.000000
vt 0.875000 0.000000
vt 0.875000 0.250000
vt 0.125000 0.000000
vt 0.125000 0.250000
vt 0.125000 0.000000
vt 0.375000 0.000000
vt 0.375000 0.250000
vt 0.125000 0.250000
vt 0.125000 0.000000
vt 0.375000 0.000000
vt 0.375000 0.250000
vt 0.125000 0.250000
vt 0.375000 0.250000
vt 0.125000 0.250000
vt 0.125000 0.250000
vt 0.375000 0.250000
vn 0.000000 0.000000 1.000000
vn 0.000000 0.000000 1.000000
vn 0.000000 0.000000 1.000000
vn 0.000000 0.000000 1.000000
vn 0.000000 1.000000 0.000000
vn 0.000000 1.000000 0.000000
vn 0.000000 1.000000 0.000000
vn 0.000000 1.000000 0.000000
vn 0.000000 0.000000 -1.000000
vn 0.000000 0.000000 -1.000000
vn 0.000000 0.000000 -1.000000
vn 0.000000 0.000000 -1.000000
vn 0.000000 -1.000000 0.000000
vn 0.000000 -1.000000 0.000000
vn 0.000000 -1.000000 0.000000
vn 0.000000 -1.000000 0.000000
vn 1.000000 0.000000 0.000000
vn 1.000000 0.000000 0.000000
vn 1.000000 0.000000 0.000000
vn 1.000000 0.000000 0.000000
vn -1.000000 0.000000 0.000000
vn -1.000000 0.000000 0.000000
vn -1.000000 0.000000 0.000000
vn -1.000000 0.000000 0.000000
vn -1.000000 0.000000 0.000000
vn -1.000000 0.000000 0.000000
vn -1.000000 0.000000 0.000000
vn -1.000000 0.000000 0.000000
vn -1.000000 -0.000000 0.000000
vn -1.000000 0.000000 0.000000
vn -1.000000 -0.000000 0.000000
vn -1.000000 -0.000000 0.000000
vn -1.000000 0.000000 0.000000
vn -1.000000 0.000000 0.000000
vn -1.000000 -0.000000 0.000000
vn -1.000000 0.000000 0.000000
vn 0.000000 1.000000 0.000000
vn 0.000000 1.000000 0.000000
vn 0.000000 1.000000 0.000000
vn 0.000000 1.000000 0.000000
vn 0.000000 0.000000 -1.000000
vn 0.000000 0.000000 -1.000000
vn 0.000000 0.000000 -1.000000
vn 0.000000 0.000000 -1.000000
vn 0.000000 -1.000000 0.000000
vn 0.000000 -1.000000 0.000000
vn 0.000000 -1.000000 0.000000
vn 0.000000 -1.000000 0.000000
vn 0.000000 0.000000 1.000000
vn 0.000000 0.000000 1.000000
vn 0.000000 0.000000 1.000000
vn 0.000000 0.000000 1.000000
s off
g pCube1
usemtl lambert3SG
f 1/1/1 2/2/2 4/4/3 3/3/4
f 3/3/5 4/4/6 6/6/7 5/5/8
f 5/5/9 6/6/10 8/8/11 7/7/12
f 7/7/13 8/8/14 2/10/15 1/9/16
f 2/2/17 8/11/18 6/12/19 4/4/20
f 13/19/21 14/20/22 15/21/23 16/22/24
s 1
f 7/13/25 1/1/26 10/16/27 9/15/28
f 1/1/26 3/3/29 11/17/30 10/16/27
usemtl lambert2SG
f 17/23/31 18/24/32 19/25/33 20/26/34
usemtl lambert3SG
f 5/14/35 7/13/25 9/15/28 12/18/36
s off
f 9/15/37 10/16/38 14/20/39 13/19/40
f 10/16/41 11/17/42 15/21/43 14/20/44
f 11/17/45 12/18/46 16/22/47 15/21/48
f 12/18/49 9/15/50 13/19/51 16/22/52
s 1
f 3/3/29 5/14/35 18/24/32 17/23/31
f 5/14/35 12/18/36 19/25/33 18/24/32
f 12/18/36 11/17/30 20/26/34 19/25/33
f 11/17/30 3/3/29 17/23/31 20/26/34
g default
v -5.682841 0.301769 -2.704595
v -5.188299 0.301769 -2.704595
v -5.682841 9.374686 -2.704595
v -5.188299 9.374686 -2.704595
v -5.682841 9.374686 -3.785173
v -5.188299 9.374686 -3.785173
v -5.682841 0.301769 -3.785173
v -5.188299 0.301769 -3.785173
vt 0.375000 0.000000
vt 0.625000 0.000000
vt 0.375000 0.250000
vt 0.625000 0.250000
vt 0.375000 0.500000
vt 0.625000 0.500000
vt 0.375000 0.750000
vt 0.625000 0.750000
vt 0.375000 1.000000
vt 0.625000 1.000000
vt 0.875000 0.000000
vt 0.875000 0.250000
vt 0.125000 0.000000
vt 0.125000 0.250000
vn 0.000000 0.000000 1.000000
vn 0.000000 0.000000 1.000000
vn 0.000000 0.000000 1.000000
vn 0.000000 0.000000 1.000000
vn 0.000000 1.000000 0.000000
vn 0.000000 1.000000 0.000000
vn 0.000000 1.000000 0.000000
vn 0.000000 1.000000 0.000000
vn 0.000000 0.000000 -1.000000
vn 0.000000 0.000000 -1.000000
vn 0.000000 0.000000 -1.000000
vn 0.000000 0.000000 -1.000000
vn 0.000000 -1.000000 0.000000
vn 0.000000 -1.000000 0.000000
vn 0.000000 -1.000000 0.000000
vn 0.000000 -1.000000 0.000000
vn 1.000000 0.000000 0.000000
vn 1.000000 0.000000 0.000000
vn 1.000000 0.000000 0.000000
vn 1.000000 0.000000 0.000000
vn -1.000000 0.000000 0.000000
vn -1.000000 0.000000 0.000000
vn -1.000000 0.000000 0.000000
vn -1.000000 0.000000 0.000000
s off
g pCube2
usemtl lambert5SG
f 21/27/53 22/28/54 24/30/55 23/29/56
f 23/29/57 24/30/58 26/32/59 25/31/60
f 25/31/61 26/32/62 28/34/63 27/33/64
f 27/33/65 28/34/66 22/36/67 21/35/68
f 22/28/69 28/37/70 26/38/71 24/30/72
f 27/39/73 21/27/74 23/29/75 25/40/76
g default
v -5.609802 0.301769 3.760258
v -5.115260 0.301769 3.760258
v -5.609802 9.374686 3.760258
v -5.115260 9.374686 3.760258
v -5.609802 9.374686 2.555386
v -5.115260 9.374686 2.555386
v -5.609802 0.301769 2.555386
v -5.115260 0.301769 2.555386
v -5.609802 9.374686 2.572848
v -5.115260 9.374686 2.572848
v -5.115260 0.301769 2.572848
v -5.609802 0.301769 2.572848
vt 0.375000 0.000000
vt 0.625000 0.000000
vt 0.375000 0.250000
vt 0.625000 0.250000
vt 0.375000 0.500000
vt 0.625000 0.500000
vt 0.375000 0.750000
vt 0.625000 0.750000
vt 0.375000 1.000000
vt 0.625000 1.000000
vt 0.875000 0.000000
vt 0.875000 0.250000
vt 0.125000 0.000000
vt 0.125000 0.250000
vt 0.128623 0.250000
vt 0.375000 0.496377
vt 0.625000 0.496377
vt 0.871377 0.250000
vt 0.625000 0.753623
vt 0.871377 0.000000
vt 0.128623 0.000000
vt 0.375000 0.753623
vn 0.000000 0.000000 1.000000
vn 0.000000 0.000000 1.000000
vn 0.000000 0.000000 1.000000
vn 0.000000 0.000000 1.000000
vn 0.000000 1.000000 0.000000
vn 0.000000 1.000000 0.000000
vn 0.000000 1.000000 0.000000
vn 0.000000 1.000000 0.000000
vn 0.000000 0.000000 -1.000000
vn 0.000000 0.000000 -1.000000
vn 0.000000 0.000000 -1.000000
vn 0.000000 0.000000 -1.000000
vn 0.000000 -1.000000 0.000000
vn 0.000000 -1.000000 0.000000
vn 0.000000 -1.000000 0.000000
vn 0.000000 -1.000000 0.000000
vn 1.000000 0.000000 0.000000
vn 1.000000 0.000000 0.000000
vn 1.000000 0.000000 0.000000
vn 1.000000 0.000000 0.000000
vn -1.000000 0.000000 0.000000
vn -1.000000 0.000000 0.000000
vn -1.000000 0.000000 0.000000
vn -1.000000 0.000000 0.000000
vn 0.000000 1.000000 0.000000
vn 0.000000 1.000000 0.000000
vn 1.000000 0.000000 0.000000
vn 1.000000 0.000000 0.000000
vn 0.000000 -1.000000 0.000000
vn 0.000000 -1.000000 0.000000
vn -1.000000 0.000000 0.000000
vn -1.000000 0.000000 0.000000
s off
g pCube3
usemtl lambert5SG
f 29/41/77 30/42/78 32/44/79 31/43/80
s 1
f 37/56/81 38/57/82 34/46/83 33/45/84
s off
f 33/45/85 34/46/86 36/48/87 35/47/88
s 2
f 35/47/89 36/48/90 39/59/91 40/62/92
s 3
f 38/58/93 39/60/94 36/51/95 34/52/96
s 4
f 35/53/97 40/61/98 37/55/99 33/54/100
s 1
f 31/43/101 32/44/102 38/57/82 37/56/81
s 3
f 30/42/103 39/60/94 38/58/93 32/44/104
s 2
f 40/62/92 39/59/91 30/50/105 29/49/106
s 4
f 37/55/99 40/61/98 29/41/107 31/43/108
